<svg xmlns="http://www.w3.org/2000/svg" xml:space="preserve" width="2048" height="2048" style="shape-rendering:geometricPrecision;text-rendering:geometricPrecision;image-rendering:optimizeQuality;fill-rule:evenodd;clip-rule:evenodd"><defs><clipPath id="id0"><path d="M1024-.001c565.539 0 1024 458.462 1024 1024 0 565.539-458.462 1024-1024 1024-565.539 0-1024-458.462-1024-1024 0-565.54 458.462-1024 1024-1024z"/></clipPath><style>.fil6{fill:#3e2723}.fil1{fill:#c5e1a5}.fil4{fill:#ff8f00}.fil10,.fil7,.fil9{fill:#455a64;fill-rule:nonzero}.fil10,.fil7{fill:#78909c}.fil7{fill:#ff8f00}</style></defs><g id="Layer_x0020_1"><path d="M1024-.001c565.539 0 1024 458.462 1024 1024 0 565.539-458.462 1024-1024 1024-565.539 0-1024-458.462-1024-1024 0-565.54 458.462-1024 1024-1024z" style="fill:#dcedc8"/><g style="clip-path:url(#id0)"><g id="_289347056"><path id="_2909658001" class="fil1" d="M1206.94 547.608 2342.82 1683.49l3.75 4.44 3.64 4.52 3.54 4.62 3.43 4.7 3.32 4.78 3.2 4.87 3.09 4.95 2.97 5.02 2.86 5.11 2.73 5.18 2.61 5.25 2.48 5.32 2.36 5.4 2.23 5.46 2.1 5.52 1.97 5.59 1.84 5.65 1.7 5.72 1.56 5.77 1.42 5.82 1.28 5.88 1.14 5.93.99 5.98.84 6.03.7 6.08.54 6.12.39 6.17.24 6.2.08 6.25L1265.93 705.935l-.07-6.245-.24-6.205-.39-6.164-.54-6.122-.7-6.077-.84-6.031-.99-5.982-1.14-5.931-1.28-5.88-1.42-5.825-1.56-5.769-1.7-5.711-1.84-5.652-1.97-5.589-2.1-5.526-2.23-5.461-2.36-5.392-2.48-5.325-2.61-5.252-2.74-5.179-2.85-5.105-2.97-5.027-3.09-4.949-3.2-4.867-3.32-4.785-3.43-4.7-3.54-4.615-3.64-4.525z"/><path id="_290966280" class="fil1" d="M1265.93 705.935 2401.82 1841.82l-.01 2.02-.03 2.02-.04 2.01-.06 2.01-.07 2.01-.09 2.01-.11 2-.13 1.99-.14 2-.15 1.98-.17 1.99-.19 1.98-.21 1.97-.22 1.98-.23 1.96-.26 1.97-.27 1.96-.28 1.95-.3 1.95-.31 1.94-.33 1.95-.35 1.93-.36 1.93-.38 1.93-.39 1.92-.4 1.91-.43 1.91-.43 1.91-.45 1.9-.47 1.89-.48 1.89-.5 1.89L1257.7 768.595l.5-1.884.48-1.89.46-1.894.46-1.901.43-1.905.42-1.91.41-1.916.39-1.92.38-1.926.36-1.93.35-1.936.33-1.941.31-1.944.3-1.95.28-1.955.27-1.958.25-1.963.24-1.967.22-1.973.21-1.976.18-1.979.18-1.985.15-1.989.14-1.992.13-1.996.1-2.001.1-2.004.07-2.008.06-2.012.04-2.015.03-2.018z"/><path id="_290966232" class="fil1" d="M1257.7 768.595 2393.58 1904.48l-.52 1.92-.54 1.93-.56 1.91-.57 1.91-.59 1.9-.6 1.9-.62 1.89-.63 1.88-.65 1.88-.66 1.87-.68 1.86-.69 1.86-.71 1.85-.72 1.84-.74 1.84-.75 1.83-.77 1.82-.78 1.81-.8 1.81-.81 1.8-.82 1.79-.84 1.78-.85 1.78-.87 1.77-.88 1.76-.89 1.75-.91 1.75-.92 1.74-.94 1.73-.95 1.72-.96 1.71-.98 1.71L1233.5 826.893l.97-1.705.97-1.713.95-1.721.93-1.731.93-1.737.91-1.744.89-1.754.88-1.761.87-1.77.85-1.776.84-1.785.82-1.791.81-1.799.8-1.807.78-1.815.77-1.821.75-1.828.74-1.836.72-1.842.71-1.85.69-1.856.68-1.864.66-1.87.65-1.877.63-1.883.62-1.89.6-1.896.59-1.903.57-1.91.56-1.914.54-1.922z"/><path id="_290966448" class="fil1" d="M1233.55 826.92 2369.43 1962.8l-.86 1.38-.94 1.3-1.02 1.22-1.09 1.13-1.14 1.05-1.21.96-1.26.87-1.32.79-1.35.7-1.4.6-1.43.52-1.46.42-1.48.32-1.5.23-1.52.13-1.53.03L1213.04 838.57l1.53-.032 1.52-.129 1.5-.228 1.48-.325 1.46-.421 1.43-.513 1.4-.606 1.35-.697 1.31-.787 1.27-.876 1.21-.963 1.14-1.047 1.09-1.133 1.01-1.217.94-1.298z"/><path id="_290967216" class="fil1" d="m1213.04 838.57 1135.88 1135.88h-95.7L1117.33 838.57z"/><path id="_290967120" class="fil1" d="m1117.33 838.57 1135.89 1135.88v43.51L1117.33 882.075z"/><path id="_290966880" class="fil1" d="M1301.74 889.838 2437.62 2025.72l1.01 1.22.94 1.29.86 1.38L1304.55 893.725l-.86-1.375-.94-1.297z"/><path id="_290966712" class="fil1" d="M1304.55 893.725 2440.43 2029.61l-.04.03L1304.5 893.754z"/><path id="_290966496" class="fil1" d="M1304.5 893.754 2440.39 2029.64l.49.85.49.85.48.86.49.85.48.86.48.86.47.87.47.86.48.86.46.87.47.87.46.87.46.87.46.87.46.87.45.88L1312.06 907.576l-.45-.875-.46-.874-.46-.873-.46-.87-.46-.87-.47-.868-.47-.865-.47-.865-.47-.863-.48-.861-.47-.861-.49-.859-.48-.856-.48-.855-.49-.854z"/><path id="_290966976" class="fil1" d="M1411.96 923.148 2547.84 2059.03l1.99 2.31 1.75 2.52 1.53 2.75 1.32 2.98 1.11 3.22.93 3.48.76 3.74.59 4.01.45 4.29.31 4.58.19 4.89.08 5.19-.02 5.51L1422.95 972.615l.02-5.511-.08-5.191-.19-4.883-.31-4.582-.45-4.293-.59-4.009-.76-3.74-.93-3.477-1.11-3.223-1.32-2.981-1.53-2.748-1.75-2.522z"/><path id="_290967096" class="fil1" d="M1372.38 970.918 2508.26 2106.8l-1.12-.9-1.3-.75-1.49-.62-1.7-.49-1.92-.38-2.15-.28-2.39-.19-2.65-.12-2.92-.06h-3.2l-3.49.04-3.8.06-4.12.07-4.45.08L1335.68 967.374l4.45-.075 4.11-.075 3.8-.061 3.5-.034 3.2.003 2.92.055 2.65.116 2.39.192 2.15.28 1.92.38 1.7.491 1.49.617 1.3.752z"/><path id="_290966616" class="fil1" d="M930.666 838.57 2066.55 1974.45h-96.02L834.65 838.57z"/><path id="_290966664" class="fil1" d="M1335.68 967.374 2471.56 2103.26l.16.55.15.55.15.55.16.56.15.55.15.55.15.56.15.55L1336.9 971.798l-.15-.554-.15-.554-.15-.554-.15-.553-.16-.553-.15-.552-.16-.552z"/><path id="_290966760" class="fil1" d="M1336.9 971.798 2472.78 2107.68l.66 2.52.65 2.53.62 2.53.6 2.54.59 2.55.56 2.56.55 2.56.52 2.57.5 2.58.49 2.58.46 2.59.44 2.6.42 2.61.4 2.61.38 2.61.36 2.62.34 2.63.31 2.64.3 2.64.27 2.65.25 2.65.23 2.66.21 2.66.19 2.67.17 2.67.14 2.68.12 2.69.1 2.69.08 2.69.06 2.7.03 2.71.01 2.71L1347.91 1055.7l-.01-2.71-.03-2.71-.06-2.7-.08-2.69-.1-2.69-.12-2.69-.14-2.68-.17-2.67-.19-2.67-.21-2.67-.23-2.66-.25-2.65-.27-2.64-.3-2.64-.32-2.64-.33-2.63-.36-2.62-.38-2.62-.4-2.61-.42-2.6-.44-2.597-.47-2.592-.48-2.583-.5-2.577-.52-2.57-.55-2.564-.56-2.556-.59-2.549-.6-2.543-.63-2.535-.64-2.527z"/><path id="_290967360" class="fil1" d="m834.65 838.57 1135.88 1135.88-1.72-.06-1.69-.18-1.65-.31-1.6-.41-1.56-.53-1.51-.63-1.45-.73-1.4-.82-1.32-.92-1.26-1.01-1.19-1.09L818.299 831.882l1.186 1.089 1.26 1.005 1.328.918 1.392.825 1.453.73 1.508.631 1.559.524 1.608.417 1.649.302 1.687.185z"/><path id="_290967792" class="fil1" d="m1347.91 1055.7 1135.88 1135.88-.1 8.36-.32 8.31-.52 8.25-.73 8.2-.93 8.13-1.13 8.08-1.33 8.01-1.52 7.94-1.71 7.87-1.91 7.8-2.09 7.72-2.27 7.65-2.46 7.56-2.63 7.49-2.82 7.4-2.98 7.31-3.16 7.22-3.33 7.13-3.49 7.03-3.66 6.93-3.82 6.83-3.98 6.74-4.14 6.62-4.29 6.52-4.44 6.4-4.59 6.3-4.74 6.18-4.88 6.05-5.02 5.94-5.16 5.82-5.29 5.69-5.43 5.56-1135.88-1135.89 5.43-5.56 5.29-5.68 5.16-5.82 5.02-5.94 4.88-6.06 4.74-6.17 4.59-6.3 4.44-6.4 4.29-6.52 4.14-6.63 3.98-6.73 3.81-6.83 3.66-6.93 3.5-7.04 3.33-7.12 3.16-7.22 2.98-7.32 2.81-7.39 2.64-7.49 2.46-7.56 2.27-7.65 2.09-7.72 1.91-7.8 1.71-7.88 1.52-7.94 1.33-8.01 1.13-8.07.93-8.14.73-8.19.52-8.26.31-8.3z"/><path id="_290967864" class="fil1" d="m1253.04 1284.73 1135.88 1135.89-1.99 1.97-2.01 1.95-2.02 1.94-2.04 1.92-2.05 1.9-2.08 1.89-2.08 1.87-2.11 1.85-2.12 1.83-2.14 1.81-2.15 1.8-2.17 1.77-2.18 1.76-2.2 1.74-2.21 1.72-2.23 1.7-2.25 1.69-2.26 1.66-2.27 1.65-2.29 1.62-2.31 1.61-2.32 1.59-2.33 1.56-2.35 1.55-2.36 1.53-2.37 1.51-2.39 1.48-2.41 1.47-2.41 1.45-2.43 1.43-2.45 1.4-2.46 1.39L1181.6 1338.74l2.46-1.38 2.44-1.41 2.44-1.42 2.41-1.45 2.41-1.47 2.38-1.49 2.38-1.5 2.36-1.53 2.35-1.55 2.33-1.57 2.32-1.58 2.31-1.61 2.28-1.63 2.28-1.64 2.26-1.67 2.24-1.68 2.23-1.7 2.22-1.72 2.2-1.74 2.18-1.76 2.17-1.78 2.15-1.79 2.14-1.82 2.12-1.83 2.1-1.85 2.09-1.86 2.07-1.89 2.06-1.9 2.04-1.92 2.02-1.94 2.01-1.95z"/><path id="_290967720" class="fil1" d="M712.321 967.374 1848.2 2103.26l-4.45-.08-4.11-.07-3.8-.06-3.5-.04h-3.2l-2.91.06-2.65.12-2.4.19-2.15.28-1.92.38-1.7.49-1.49.62-1.3.75-1.12.9-.95 1.06-.79 1.24-.65 1.42-.51 1.63-.4 1.83-.29 2.05-.19 2.29-.12 2.54-.04 2.8.02 3.07.05 3.36.1 3.65.11 3.96.12 4.28.11 4.62.1 4.96.07 5.32.02 5.69L672.381 1026.69l-.025-5.69-.067-5.32-.098-4.96-.114-4.62-.119-4.28-.112-3.964-.092-3.652-.059-3.355-.015-3.071.043-2.798.113-2.538.194-2.29.289-2.056.397-1.833.516-1.621.648-1.424.792-1.237.949-1.063 1.117-.903 1.299-.752 1.494-.617 1.7-.491 1.919-.38 2.15-.28 2.394-.192 2.65-.116 2.919-.055 3.199-.003 3.494.034 3.8.061 4.117.075z"/><path id="_290967552" class="fil1" d="M672.381 1026.69 1808.26 2162.57l-.01 6.88-.02 6.9-.05 6.91-.07 6.92-.08 6.94-.1 6.96-.11 6.96-.14 6.98-.15 6.98-.16 7-.19 7-.19 7.02-.22 7.01-.23 7.03-.24 7.03-.26 7.03-.28 7.04-.29 7.03-.3 7.04-.32 7.04-.32 7.04-.35 7.04-.36 7.03-.36 7.03-.39 7.03-.39 7.02-.41 7.01-.41 7.01-.43 7-.44 6.98-.45 6.98-.47 6.97L664.192 1250.53l.462-6.97.451-6.98.441-6.99.43-7 .417-7 .406-7.02.393-7.02.383-7.02.368-7.03.357-7.04.344-7.03.329-7.04.317-7.04.302-7.04.29-7.04.274-7.03.259-7.04.245-7.02.23-7.03.214-7.02.198-7.01.184-7 .166-7 .15-6.99.134-6.97.116-6.97.1-6.95.081-6.94.064-6.92.047-6.92.027-6.89z"/><path id="_290967840" class="fil1" d="m1119.15 1365.41 1135.88 1135.88-2.83.85-2.83.83-2.85.8-2.86.78-2.87.75-2.88.73-2.89.7-2.9.67-2.9.65-2.92.62-2.93.6-2.94.57-2.95.54-2.95.52-2.97.49-2.97.46-2.98.44-3 .41-3 .38-3.01.35-3.01.33-3.03.3-3.03.27-3.05.24-3.04.21-3.06.19-3.07.16-3.07.13-3.08.1-3.08.07-3.1.05-3.1.01L1024 1379.61l3.1-.02 3.09-.04 3.09-.07 3.08-.1 3.07-.13 3.07-.16 3.06-.19 3.04-.21 3.05-.25 3.03-.27 3.03-.29 3.01-.33 3.01-.36 3-.38 2.99-.41 2.99-.43 2.97-.46 2.97-.49 2.95-.52 2.95-.54 2.94-.57 2.93-.6 2.91-.62 2.91-.65 2.9-.67 2.89-.7 2.88-.73 2.87-.75 2.86-.78 2.84-.8 2.84-.83z"/><path id="_290967600" class="fil1" d="m1024 1379.61 1135.88 1135.88-3.1-.01-3.09-.05-3.09-.07-3.08-.1-3.07-.13-3.07-.16-3.05-.19-3.05-.21-3.04-.24-3.04-.27-3.02-.3-3.02-.33-3.01-.35-3-.38-2.99-.41-2.99-.44-2.97-.46-2.97-.49-2.95-.52-2.95-.54-2.94-.57-2.93-.6-2.91-.62-2.91-.65-2.9-.67-2.89-.7-2.88-.73-2.87-.75-2.86-.78-2.84-.8-2.84-.83-2.83-.85L928.853 1365.41l2.826.85 2.837.83 2.847.8 2.858.78 2.869.75 2.878.72 2.889.71 2.898.67 2.91.65 2.918.62 2.928.6 2.937.57 2.948.54 2.957.52 2.964.49 2.975.46 2.983.43 2.993.41 3 .38 3.009.36 3.018.33 3.025.29 3.034.27 3.041.25 3.045.21 3.06.19 3.07.16 3.07.13 3.08.1 3.09.07 3.09.04z"/><path id="_290967960" class="fil1" d="m1158.27 1584 1135.88 1135.88-2.39-.12-2.31-.35-2.24-.58-2.14-.78-2.04-.98-1.93-1.17-1.79-1.35-1.66-1.5-1135.88-1135.88 1.66 1.5 1.79 1.34 1.93 1.17 2.04.99 2.14.78 2.24.58 2.31.35z"/><path id="_290968008" class="fil1" d="m1181.6 1338.74 1135.88 1135.89v175.25L1181.6 1514z"/><path id="_290967648" class="fil1" d="m1256.08 1584 1135.89 1135.88h-97.82L1158.27 1584z"/><path id="_290967576" class="fil1" d="M866.396 1338.74 2002.28 2474.63l-2.46-1.39-2.44-1.4-2.44-1.43-2.41-1.45-2.41-1.47-2.38-1.48-2.38-1.51-2.36-1.53-2.35-1.55-2.33-1.56-2.32-1.59-2.3-1.61-2.29-1.62-2.28-1.65-2.26-1.66-2.24-1.69-2.23-1.7-2.22-1.72-2.2-1.74-2.18-1.76-2.17-1.77-2.15-1.8-2.14-1.81-2.12-1.83-2.1-1.85-2.09-1.87-2.07-1.89L805.075 1294.42l2.072 1.89 2.088 1.86 2.105 1.85 2.121 1.83 2.137 1.82 2.152 1.79 2.168 1.78 2.184 1.76 2.199 1.74 2.214 1.72 2.23 1.7 2.245 1.68 2.259 1.67 2.275 1.64 2.29 1.63 2.305 1.61 2.318 1.58 2.333 1.57 2.348 1.55 2.361 1.53 2.375 1.5 2.39 1.49 2.403 1.47 2.417 1.45 2.43 1.42 2.444 1.41z"/><path id="_290968224" class="fil1" d="M664.192 1250.53 1800.07 2386.41l-.75 4.08-1.09 3.77-1.4 3.45-1.7 3.14-1.97 2.84-2.21 2.53-2.42 2.24-2.61 1.94-2.78 1.65-2.93 1.36-3.03 1.08-3.13.79-3.19.51-3.23.25-3.25-.04-3.23-.3-3.2-.56-3.14-.83-3.06-1.08-2.94-1.34-2.81-1.59-2.64-1.84-2.46-2.08L605.019 1270.49l2.458 2.09 2.646 1.84 2.806 1.59 2.942 1.34 3.053 1.08 3.141.83 3.199.56 3.236.3 3.247.03 3.232-.24 3.191-.51 3.127-.8 3.036-1.07 2.921-1.36 2.78-1.65 2.615-1.94 2.424-2.24 2.206-2.53 1.967-2.84 1.699-3.14 1.407-3.46 1.091-3.76z"/><path id="_290968152" class="fil1" d="m889.73 1584 1135.88 1135.88h-97.81L791.914 1584z"/><path id="_290968632" class="fil1" d="M791.914 1584 1927.8 2719.88l-2.11-.1-2.04-.32-1.98-.5-1.89-.7-1.8-.86-1.7-1.03-1.58-1.19L778.818 1579.3l1.585 1.18 1.698 1.03 1.8.87 1.891.69 1.973.51 2.045.31z"/><path id="_290968248" class="fil1" d="M928.853 1365.41 2064.73 2501.29l-15.79 195.26L913.064 1560.67z"/><path id="_290968056" class="fil1" d="m1276.67 1563.41 1135.88 1135.88-.1 2.11-.31 2.04-.51 1.98-.69 1.89-.87 1.8-1.03 1.69-1.19 1.59-1.33 1.46-1.46 1.33-1.58 1.19-1.7 1.03-1.8.86-1.89.7-1.98.5-2.04.32-2.1.1L1256.08 1584l2.11-.11 2.04-.31 1.98-.51 1.89-.69 1.8-.87 1.7-1.03 1.58-1.18 1.46-1.33 1.33-1.46 1.19-1.59 1.03-1.7.87-1.8.69-1.89.51-1.97.31-2.04z"/><path id="_290968488" class="fil1" d="m1270.64 1548.85 1135.88 1135.89 1.33 1.46 1.19 1.58 1.03 1.7.87 1.8.69 1.89.51 1.97.31 2.05.1 2.1-1135.88-1135.88-.1-2.1-.31-2.05-.51-1.97-.69-1.89-.87-1.8-1.03-1.7-1.19-1.58z"/><path id="_290968176" class="fil1" d="M913.064 1560.67 2048.94 2696.55l-.12 2.38-.35 2.32-.57 2.24-.79 2.14-.98 2.04-1.17 1.92-1.34 1.8-1.51 1.66-1.66 1.5-1.79 1.35-1.93 1.17-2.04.98-2.14.78-2.24.58-2.31.35-2.39.12L889.73 1584l2.386-.12 2.316-.35 2.236-.58 2.145-.78 2.038-.99 1.924-1.17 1.797-1.34 1.657-1.5 1.506-1.66 1.344-1.8 1.168-1.92.982-2.04.786-2.14.575-2.24.353-2.32z"/><path id="_290968536" class="fil1" d="M1422.95 972.615 2558.83 2108.5l-.1 10.78-.06 10.34-.01 9.92.04 9.53.1 9.17.15 8.83.2 8.54.26 8.27.32 8.02.38 7.81.45 7.62.51 7.47.59 7.35.65 7.25.72 7.19.8 7.15.88 7.14.95 7.17 1.04 7.21 1.12 7.3 1.2 7.41 1.29 7.55 1.38 7.71 1.47 7.92 1.56 8.15 1.65 8.4 1.76 8.69 1.85 9.01 1.96 9.35 2.06 9.73 2.16 10.13 2.27 10.57-1135.88-1135.89-2.27-10.56-2.16-10.14-2.06-9.72-1.96-9.36-1.85-9-1.76-8.69-1.65-8.41-1.57-8.14-1.47-7.92-1.37-7.72-1.29-7.54-1.2-7.41-1.12-7.3-1.04-7.22-.95-7.16-.88-7.14-.8-7.15-.72-7.19-.65-7.25-.59-7.35-.51-7.47-.45-7.63-.38-7.81-.32-8.02-.26-8.26-.21-8.54-.14-8.84-.1-9.17-.04-9.52.01-9.922.06-10.337z"/><path id="_290968608" class="fil1" d="m1452.55 1241.29 1135.88 1135.89.36 4.13-.06 3.92-.45 3.7-.81 3.48-1.14 3.25-1.46 3.03-1.75 2.8-2.01 2.56-2.25 2.33-2.46 2.08-2.64 1.84-2.81 1.59-2.94 1.34-3.05 1.08-3.14.83-3.2.56-3.24.3-3.24.04-3.24-.25-3.19-.51-3.13-.79-3.03-1.08-2.92-1.36-2.78-1.65-2.62-1.94-2.42-2.24-1135.88-1135.88 2.42 2.24 2.62 1.94 2.78 1.65 2.92 1.36 3.03 1.07 3.13.8 3.19.51 3.23.24 3.25-.03 3.24-.3 3.2-.56 3.14-.83 3.05-1.08 2.94-1.34 2.81-1.59 2.64-1.84 2.46-2.09 2.25-2.32 2.01-2.56 1.74-2.8 1.46-3.03 1.15-3.25.81-3.48.45-3.7.06-3.92z"/><path id="_289346960" class="fil1" d="M1195.07 534.863c43.782 43.782 70.863 104.267 70.863 171.072 0 21.587-2.864 42.594-8.234 62.66-5.512 20.592-13.71 40.157-24.203 58.298l.048.027c-4.376 7.564-12.348 11.75-20.505 11.65h-95.707v43.505h166.752c8.144-.086 16.097 4.098 20.466 11.65l-.047.03a324.871 324.871 0 0 1 7.554 13.822c97.811.047 111.567 4.523 110.888 65.038-1.316 117.542 4.796 153.541 29.605 268.68 6.075 45.21-62.67 54.448-68.744 9.236-4.983-74.27-8.187-150.566-8.187-223.839 0-62.734 9.315-60.088-39.942-59.317a324.119 324.119 0 0 1 12.232 88.323c0 89.441-36.257 170.42-94.874 229.037a325.105 325.105 0 0 1-71.434 54.01V1514l74.482 28.823c11.37 0 20.589 9.218 20.589 20.588 0 11.37-9.219 20.589-20.59 20.589h-97.815c-12.885 0-23.334-10.447-23.334-23.334l-15.789-195.26c-30.085 9.232-62.036 14.201-95.146 14.201s-65.06-4.969-95.147-14.201l-15.789 195.26c0 12.887-10.448 23.334-23.334 23.334h-97.815c-11.37 0-20.59-9.219-20.59-20.59 0-11.369 9.22-20.587 20.59-20.587L866.394 1514v-175.257a325.098 325.098 0 0 1-71.433-54.01c-58.617-58.616-94.873-139.595-94.873-229.036a324.118 324.118 0 0 1 12.231-88.323c-49.256-.771-39.94-3.417-39.94 59.317 0 73.274-3.204 149.568-8.188 223.84-6.074 45.21-74.82 35.973-68.743-9.237 24.81-115.139 30.921-151.138 29.604-268.68-.679-60.515 13.076-64.991 110.887-65.039 2.14-4.15 4.366-8.25 6.677-12.296 3.772-7.813 11.77-13.205 21.027-13.205h167.021V838.57H834.65c-9.263 0-17.265-5.398-21.033-13.22-10.07-17.704-17.962-36.745-23.319-56.755a242.125 242.125 0 0 1-8.233-62.66c0-66.806 27.08-127.29 70.863-171.072C896.709 491.082 957.194 464 1023.999 464l.662.001c66.544.179 126.773 27.226 170.41 70.862z"/></g></g><path d="M1024-.001c565.539 0 1024 458.462 1024 1024 0 565.539-458.462 1024-1024 1024-565.539 0-1024-458.462-1024-1024 0-565.54 458.462-1024 1024-1024z" style="fill:none"/><path d="M1117.33 826.02c0-12.886-41.79-23.334-93.334-23.334-51.545 0-93.335 10.448-93.335 23.334v79.389c0 12.887 41.79 23.334 93.335 23.334 51.544 0 93.334-10.447 93.334-23.334V826.02z" style="fill:#db640a;fill-rule:nonzero"/><path class="fil4" d="M1024 464c66.806 0 127.29 27.081 171.072 70.863s70.863 104.267 70.863 171.072c0 21.587-2.864 42.594-8.234 62.66-5.512 20.592-13.71 40.157-24.203 58.298l.048.027c-4.376 7.564-12.348 11.75-20.505 11.65h-378.39c-9.264 0-17.266-5.399-21.034-13.22-10.07-17.705-17.962-36.745-23.318-56.755a242.125 242.125 0 0 1-8.234-62.66c0-66.806 27.08-127.29 70.863-171.072C896.71 491.082 957.195 464 1024 464z"/><path class="fil4" d="M1024 838.57H834.65c-9.263 0-17.265-5.399-21.033-13.22-10.07-17.705-17.962-36.745-23.319-56.756a242.125 242.125 0 0 1-8.233-62.66c0-66.805 27.08-127.29 70.863-171.072C896.71 491.082 957.195 464 1024 464v374.57z"/><path d="m1024 464 .663.004c66.542.178 126.773 27.222 170.41 70.859 43.782 43.782 70.862 104.267 70.862 171.072 0 21.587-2.864 42.594-8.233 62.66-5.512 20.592-13.71 40.157-24.203 58.298l.048.027c-4.376 7.564-12.348 11.75-20.505 11.65h-189.041V464z" style="fill:#ffa000"/><path class="fil6" d="M1064.04 624.802c0 12.887 10.448 23.334 23.334 23.334 12.887 0 23.334-10.447 23.334-23.334v-17.181c0-12.887-10.447-23.334-23.334-23.334-12.886 0-23.334 10.446-23.334 23.333v17.182zM1111.57 720.667c-19.77 26.897-51.63 44.359-87.573 44.359-35.942 0-67.802-17.462-87.573-44.359h175.146zM937.296 624.802c0 12.887 10.447 23.334 23.334 23.334 12.886 0 23.334-10.447 23.334-23.334v-17.181c0-12.887-10.448-23.334-23.334-23.334-12.887 0-23.334 10.446-23.334 23.333v17.182z"/><path class="fil7" d="M936.396 1272.11c0-12.886-10.447-23.334-23.334-23.334-12.886 0-46.667 10.448-46.667 23.334v241.889l-74.481 28.822c-11.37 0-20.59 9.219-20.59 20.588 0 11.37 9.22 20.59 20.59 20.59h97.815c12.886 0 23.334-10.448 23.334-23.335l23.333-288.554zM1111.6 1272.11c0-12.886 10.447-23.334 23.334-23.334s46.667 10.448 46.667 23.334v241.889l74.481 28.822c11.37 0 20.59 9.219 20.59 20.588 0 11.37-9.22 20.59-20.59 20.59h-97.815c-12.886 0-23.334-10.448-23.334-23.335L1111.6 1272.11zM595.45 1241.29c-6.077 45.21 62.67 54.448 68.743 9.236 4.984-74.271 8.188-150.566 8.188-223.839 0-67.926-10.923-59.203 53.413-59.203 12.887 0 23.334-10.446 23.334-23.333 0-12.886 1.326-36.58-11.56-36.58-99.285 0-113.196 4.19-112.513 65.04 1.317 117.541-4.796 153.54-29.605 268.68zM1452.55 1241.29c6.076 45.21-62.67 54.448-68.744 9.236-4.983-74.271-8.187-150.566-8.187-223.839 0-67.926 10.921-59.203-53.413-59.203-12.887 0-23.334-10.446-23.334-23.333 0-12.886-1.326-36.58 11.56-36.58 99.284 0 113.196 4.19 112.513 65.04-1.317 117.541 4.796 153.54 29.605 268.68z"/><path d="M1253.04 1284.73c-58.617 58.617-139.596 94.873-229.037 94.873s-170.42-36.256-229.037-94.873c-58.617-58.617-94.873-139.596-94.873-229.037 0-28.932 3.83-57.062 11.013-83.9 7.229-27.01 17.9-52.68 31.515-76.517 3.771-7.813 11.77-13.205 21.027-13.205h520.44c8.145-.086 16.098 4.097 20.467 11.65l-.047.029c14.035 24.265 25.009 50.456 32.392 78.043a324.119 324.119 0 0 1 11.013 83.9c0 89.441-36.256 170.42-94.873 229.037z" style="fill:#90a4ae;fill-rule:nonzero"/><path class="fil7" d="M734.813 909.786a325.622 325.622 0 0 1 7.805-14.506c3.771-7.813 11.77-13.205 21.027-13.205h520.44c8.145-.086 16.098 4.097 20.467 11.65l-.047.029a325.207 325.207 0 0 1 8.683 16.032H734.812z"/><path class="fil9" d="M1036.73 1091.24c0 14.408 10.448 26.09 23.334 26.09 12.887 0 23.334-11.682 23.334-26.09v-82.82c0-14.408-10.447-26.09-23.334-26.09-12.886 0-23.334 11.682-23.334 26.09v82.82zM964.596 1091.24c0 14.408 10.448 26.09 23.334 26.09 12.887 0 23.334-11.682 23.334-26.09v-82.82c0-14.408-10.447-26.09-23.334-26.09-12.886 0-23.334 11.682-23.334 26.09v82.82z"/><path class="fil10" d="M1108.87 1091.24c0 14.408 10.448 26.09 23.334 26.09 12.887 0 23.334-11.682 23.334-26.09v-82.82c0-14.408-10.447-26.09-23.334-26.09-12.886 0-23.334 11.682-23.334 26.09v82.82zM892.458 1091.24c0 14.408 10.447 26.09 23.334 26.09 12.886 0 23.334-11.682 23.334-26.09v-82.82c0-14.408-10.448-26.09-23.334-26.09-12.887 0-23.334 11.682-23.334 26.09v82.82z"/><path style="fill:#546e7a" d="M819.378 1146.31h409.246v96.615H819.378z"/><path style="fill:#00e676" d="M848.773 1166.82h18.685v55.599h-18.685z"/><path style="fill:#ffd600" d="M890.244 1166.82h18.685v55.599h-18.685z"/><path style="fill:#e53935" d="M931.715 1166.82H950.4v55.599h-18.685z"/><path style="fill:#ab47bc" d="M973.186 1166.82h18.685v55.599h-18.685z"/><path style="fill:#03a9f4" d="M1014.66 1166.82h18.685v55.599h-18.685z"/><path style="fill:#4caf50" d="M1056.13 1166.82h18.685v55.599h-18.685z"/><path style="fill:#3949ab" d="M1097.6 1166.82h18.685v55.599H1097.6z"/><path style="fill:#37474f" d="M1139.07 1166.82h18.685v55.599h-18.685z"/><path class="fil6" d="M1180.54 1166.82h18.685v55.599h-18.685z"/></g></svg>